<svg width="20" height="20" viewBox="0 0 20 20" fill="none" xmlns="http://www.w3.org/2000/svg">
<path d="M13.4867 0C12.025 0 10.6216 0.729977 9.57148 1.74011C8.52045 0.729977 7.11792 0 5.65622 0C4.15682 0.00161214 2.71929 0.597961 1.65905 1.6582C0.598816 2.71844 0.00246663 4.15597 0.000854492 5.65537C0.000854492 7.03006 0.520278 8.34558 1.41035 9.38182C3.48282 11.7936 9.57148 19.1412 9.57148 19.1412C9.57148 19.1412 15.6584 11.8006 17.7274 9.38791C18.6262 8.34036 19.1421 7.02745 19.1421 5.65537C19.1421 2.53708 16.605 0 13.4867 0Z" fill="#E83829"/>
<path opacity="0.1" d="M17.7273 9.17038C15.6583 11.5831 9.57139 18.9237 9.57139 18.9237C9.57139 18.9237 3.48274 11.5761 1.41026 9.16429C0.642875 8.27162 0.152163 7.27975 0.0303553 6.13998C0.0130607 5.97898 0.00318956 5.81726 0.000773384 5.65536C-0.000966729 5.70234 0.000773384 5.6075 0.000773384 5.65536C0.000773384 5.82763 0.00860385 5.99816 0.0242649 6.16782C0.142339 7.35665 0.626288 8.47958 1.40939 9.38181C3.48274 11.7936 9.57139 19.1412 9.57139 19.1412C9.57139 19.1412 15.6583 11.8006 17.7273 9.3879C18.3416 8.67795 18.7764 7.83082 18.995 6.91781C19.0922 6.50403 19.1412 6.0804 19.1411 5.65536C19.1367 6.06135 19.0836 6.46534 18.9828 6.85864C18.7653 7.7026 18.3337 8.4639 17.7273 9.17038Z" fill="#010101"/>
<path opacity="0.2" d="M5.65622 0.217514C7.11792 0.217514 8.52045 0.947492 9.57148 1.95763C10.6225 0.947492 12.025 0.217514 13.4867 0.217514C16.5572 0.217514 19.0586 2.67977 19.1343 5.73193C19.1343 5.70583 19.1412 5.68147 19.1412 5.65537C19.1398 4.15605 18.5437 2.71851 17.4836 1.65825C16.4235 0.59799 14.9861 0.00161253 13.4867 0C12.025 0 10.6234 0.729977 9.57148 1.74011C8.52132 0.729977 7.11966 0 5.65622 0C4.15682 0.00161214 2.71929 0.597961 1.65905 1.6582C0.598816 2.71844 0.00246663 4.15597 0.000854492 5.65537C0.000854492 5.68147 0.0078149 5.70583 0.00868495 5.73193C0.0843799 2.6789 2.58492 0.217514 5.65622 0.217514Z" fill="white"/>
<path d="M8.70136 15.6384L6.42442 10.4407H0.000793457V9.57061H6.96125L8.39249 13.0735L10.9 3.06868L12.8089 9.57061H19.142V10.4407H12.1816L11.0583 6.29659L8.70136 15.6384Z" fill="#F3F2F3"/>
<path d="M12.1816 10.4407L11.0584 6.2966L8.70137 15.6384L6.42443 10.4407H2.30994C4.8505 13.445 9.57143 19.1412 9.57143 19.1412C9.57143 19.1412 14.2967 13.4424 16.8338 10.4407H12.1816Z" fill="url(#paint0_linear_23_178)"/>
<path d="M17.7283 9.38791C18.627 8.34036 19.1421 7.02745 19.1421 5.65537C19.1421 2.53708 16.605 0 13.4867 0C12.025 0 10.6225 0.729977 9.57148 1.74011C8.52045 0.729977 7.11792 0 5.65622 0C4.15689 0.00184193 2.7195 0.598265 1.65931 1.65845C0.59912 2.71864 0.00269642 4.15604 0.000854492 5.65537C0.000854492 7.03006 0.519408 8.34558 1.41035 9.38182L1.57131 9.57062H0.000854492V10.4407H2.31085C4.85403 13.4485 9.57148 19.1412 9.57148 19.1412C9.57148 19.1412 14.2941 13.4459 16.833 10.4407H19.1421V9.57062H17.5725L17.7283 9.38791Z" fill="url(#paint1_linear_23_178)"/>
<defs>
<linearGradient id="paint0_linear_23_178" x1="5.58135" y1="7.16927" x2="13.5624" y2="15.1503" gradientUnits="userSpaceOnUse">
<stop stop-color="#010101" stop-opacity="0.2"/>
<stop offset="1" stop-color="#010101" stop-opacity="0"/>
</linearGradient>
<linearGradient id="paint1_linear_23_178" x1="0.192267" y1="3.99182" x2="18.2277" y2="12.4018" gradientUnits="userSpaceOnUse">
<stop stop-color="white" stop-opacity="0.2"/>
<stop offset="1" stop-color="white" stop-opacity="0"/>
</linearGradient>
</defs>
</svg>
