<svg width="20" height="20" viewBox="0 0 20 20" fill="none" xmlns="http://www.w3.org/2000/svg">
<path d="M11.8237 10.7875V15.3471C11.8237 16.3534 12.2294 17.3184 12.9517 18.03C13.674 18.7415 14.6536 19.1412 15.675 19.1412H18.2169C18.4621 19.1412 18.6972 19.0453 18.8705 18.8745C19.0439 18.7038 19.1412 18.4722 19.1412 18.2306V17.6108C19.1412 14.5961 18.0535 11.6795 16.0723 9.38189L13.6797 6.60715C13.5808 6.49248 13.4578 6.40036 13.3192 6.33719C13.1806 6.27401 13.0297 6.24129 12.8769 6.24129C12.7386 6.24129 12.6017 6.26813 12.4739 6.32027C12.3461 6.37242 12.23 6.44885 12.1322 6.5452C12.0344 6.64155 11.9568 6.75593 11.9038 6.88182C11.8509 7.00771 11.8237 7.14264 11.8237 7.2789V9.08015" fill="#FF8585"/>
<path d="M16.0723 9.38189L13.6797 6.60715C13.5375 6.44224 13.3466 6.32524 13.1335 6.27254C12.9205 6.21983 12.6961 6.23406 12.4917 6.31322C12.6534 6.37575 12.7969 6.47672 12.9094 6.60715L15.302 9.38189C17.2833 11.6795 18.371 14.5961 18.371 17.6108V18.2306C18.371 18.4721 18.2736 18.7038 18.1003 18.8745C17.9269 19.0453 17.6918 19.1412 17.4467 19.1412H18.2169C18.4621 19.1412 18.6972 19.0453 18.8705 18.8745C19.0439 18.7038 19.1413 18.4721 19.1413 18.2306V17.6108C19.1413 14.5961 18.0535 11.6795 16.0723 9.38189Z" fill="#FF7070"/>
<path d="M14.6148 14.3889C14.5433 14.3888 14.4743 14.3626 14.4213 14.3154C14.3683 14.2681 14.335 14.2032 14.3278 14.1331L14.0307 11.2552C14.0229 11.1801 14.0457 11.1051 14.0942 11.0466C14.1426 10.9881 14.2126 10.9509 14.2888 10.9433C14.365 10.9357 14.4412 10.9582 14.5006 11.0059C14.5599 11.0536 14.5976 11.1225 14.6054 11.1976L14.9025 14.0755C14.9066 14.1151 14.9021 14.1552 14.8895 14.193C14.8769 14.2308 14.8564 14.2656 14.8293 14.2952C14.8022 14.3247 14.7691 14.3483 14.7321 14.3644C14.6952 14.3806 14.6552 14.3889 14.6148 14.3889Z" fill="#FF6666"/>
<path d="M16.942 15.9986C16.8827 15.9986 16.8248 15.9805 16.7763 15.9469L14.4491 14.3372C14.4178 14.3158 14.391 14.2886 14.3704 14.257C14.3498 14.2254 14.3357 14.1901 14.329 14.1532C14.3223 14.1162 14.323 14.0783 14.3313 14.0416C14.3395 14.005 14.355 13.9703 14.3769 13.9396C14.3988 13.9088 14.4267 13.8827 14.4589 13.8626C14.4911 13.8425 14.527 13.8289 14.5646 13.8226C14.6022 13.8163 14.6406 13.8173 14.6778 13.8257C14.7149 13.8341 14.75 13.8496 14.7811 13.8714L17.1082 15.4811C17.1585 15.5159 17.1962 15.5655 17.2159 15.6228C17.2356 15.6802 17.2362 15.7422 17.2176 15.7998C17.1991 15.8575 17.1624 15.9079 17.1128 15.9436C17.0633 15.9794 17.0034 15.9986 16.942 15.9985V15.9986Z" fill="#FF6666"/>
<path d="M14.3679 17.0473C14.359 17.0473 14.3501 17.0469 14.3411 17.0461C14.2648 17.0392 14.1945 17.0027 14.1455 16.9447C14.0965 16.8867 14.0729 16.8119 14.0799 16.7367L14.3274 14.0783C14.3344 14.0032 14.3714 13.9338 14.4303 13.8855C14.4892 13.8373 14.5652 13.814 14.6415 13.8209C14.7178 13.8278 14.7881 13.8643 14.8371 13.9223C14.8861 13.9803 14.9097 14.0551 14.9027 14.1303L14.6552 16.7887C14.6486 16.8594 14.6155 16.925 14.5623 16.9728C14.5092 17.0207 14.4398 17.0472 14.3679 17.0473ZM16.3231 12.6085C16.2741 12.6085 16.2259 12.5962 16.183 12.5727L14.1777 11.4751C14.1111 11.4383 14.062 11.377 14.0412 11.3046C14.0204 11.2322 14.0295 11.1546 14.0666 11.0888C14.1037 11.023 14.1657 10.9744 14.2392 10.9536C14.3126 10.9327 14.3914 10.9414 14.4583 10.9777L16.4636 12.0752C16.5196 12.1058 16.5637 12.1539 16.5889 12.2119C16.6141 12.2698 16.6191 12.3344 16.603 12.3955C16.5869 12.4565 16.5507 12.5106 16.5 12.5491C16.4493 12.5877 16.3871 12.6086 16.323 12.6085H16.3231ZM13.1789 14.3645C13.1272 14.3645 13.0764 14.3507 13.0319 14.3247C12.9873 14.2987 12.9507 14.2613 12.9259 14.2166C12.901 14.1719 12.8888 14.1214 12.8905 14.0705C12.8923 14.0195 12.9078 13.9699 12.9357 13.9269L14.1719 12.0173C14.2135 11.9544 14.2785 11.9102 14.353 11.8943C14.4274 11.8785 14.5052 11.8922 14.5694 11.9326C14.6336 11.9729 14.679 12.0366 14.6958 12.1098C14.7126 12.183 14.6994 12.2597 14.659 12.3233L13.4227 14.2329C13.3966 14.2733 13.3606 14.3065 13.318 14.3296C13.2753 14.3526 13.2275 14.3646 13.1789 14.3645Z" fill="#FF6666"/>
<path d="M7.31758 10.7875V15.3471C7.31758 15.8454 7.21796 16.3387 7.02441 16.7991C6.83086 17.2594 6.54717 17.6777 6.18954 18.03C5.83191 18.3823 5.40734 18.6618 4.94007 18.8524C4.4728 19.0431 3.97199 19.1412 3.46622 19.1412H0.924326C0.679179 19.1412 0.444073 19.0453 0.270729 18.8745C0.097384 18.7038 0 18.4722 0 18.2306V17.6108C4.97465e-06 14.5961 1.08773 11.6795 3.06895 9.38189L5.46157 6.60715C5.56045 6.49248 5.68345 6.40036 5.82207 6.33719C5.96068 6.27401 6.11158 6.24129 6.26431 6.24129C6.54365 6.24129 6.81156 6.35061 7.00908 6.5452C7.20661 6.73979 7.31758 7.00371 7.31758 7.2789V10.7875Z" fill="#FF8585"/>
<path d="M6.26428 6.24129C6.13251 6.24132 6.00193 6.26572 5.8793 6.31322C6.07621 6.38948 6.24525 6.52238 6.36439 6.69463C6.48353 6.86687 6.54726 7.07047 6.54728 7.2789V15.3471C6.54728 16.3534 6.14151 17.3184 5.41924 18.03C4.69697 18.7415 3.71737 19.1412 2.69592 19.1412H3.46619C3.97196 19.1412 4.47278 19.0431 4.94004 18.8524C5.40731 18.6618 5.83188 18.3823 6.18951 18.03C6.54715 17.6777 6.83083 17.2594 7.02438 16.7991C7.21793 16.3387 7.31755 15.8454 7.31755 15.3471V7.2789C7.31755 7.00371 7.20658 6.73979 7.00906 6.5452C6.81153 6.35061 6.54363 6.24129 6.26428 6.24129Z" fill="#FF7070"/>
<path d="M2.19923 15.9986C2.13779 15.9987 2.07793 15.9794 2.02834 15.9437C1.97876 15.908 1.94203 15.8576 1.92349 15.7999C1.90496 15.7422 1.90558 15.6801 1.92528 15.6228C1.94497 15.5655 1.98271 15.5158 2.03301 15.4811L4.25216 13.9462L4.53585 11.1976C4.5436 11.1225 4.58131 11.0536 4.64069 11.0059C4.70006 10.9582 4.77624 10.9357 4.85245 10.9433C4.92867 10.9509 4.99868 10.9881 5.04709 11.0466C5.0955 11.1051 5.11834 11.1801 5.11059 11.2552L4.81353 14.1331C4.80934 14.1737 4.79634 14.213 4.77539 14.2482C4.75444 14.2834 4.72605 14.3138 4.69214 14.3372L2.36496 15.9469C2.31645 15.9805 2.25856 15.9986 2.19923 15.9986V15.9986Z" fill="#FF6666"/>
<path d="M9.95069 9.17588L14.0632 12.7144L14.3801 10.9486L10.7504 8.15667C10.6883 8.10325 10.6386 8.03736 10.6045 7.96343C10.5704 7.88949 10.5527 7.80922 10.5527 7.72801V0.227646C10.5527 0.167271 10.5284 0.109368 10.4851 0.066676C10.4417 0.0239841 10.3829 0 10.3217 0L8.81962 0C8.75834 0 8.69956 0.0239841 8.65623 0.066676C8.61289 0.109368 8.58854 0.167271 8.58854 0.227646V7.72801C8.58855 7.80922 8.57091 7.88949 8.53682 7.96342C8.50273 8.03736 8.45297 8.10325 8.39089 8.15667L4.68296 10.9777L4.96503 12.6654L9.19063 9.17592C9.29588 9.08535 9.4309 9.03544 9.57066 9.03544C9.71041 9.03544 9.84543 9.08535 9.95069 9.17592V9.17588ZM4.77339 17.0473C4.70141 17.0472 4.63205 17.0207 4.5789 16.9728C4.52576 16.925 4.49265 16.8594 4.48608 16.7887L4.23851 14.1303C4.23152 14.0551 4.25511 13.9803 4.30411 13.9223C4.35311 13.8643 4.4235 13.8278 4.49979 13.8209C4.57608 13.814 4.65203 13.8373 4.71092 13.8855C4.76981 13.9338 4.80683 14.0032 4.81383 14.0783L5.06139 16.7367C5.06486 16.7739 5.06085 16.8115 5.0496 16.8472C5.03834 16.8828 5.02006 16.916 4.9958 16.9447C4.97154 16.9735 4.94177 16.9972 4.90819 17.0146C4.87462 17.032 4.83789 17.0427 4.80012 17.0461C4.79113 17.0469 4.78222 17.0473 4.77339 17.0473Z" fill="#FF6666"/>
<path d="M2.81821 12.6086C2.75416 12.6086 2.6919 12.5878 2.64122 12.5492C2.59053 12.5106 2.5543 12.4566 2.5382 12.3955C2.52211 12.3344 2.52707 12.2698 2.55231 12.2119C2.57755 12.1539 2.62163 12.1058 2.67763 12.0752L4.68295 10.9777C4.74989 10.9414 4.82869 10.9327 4.90209 10.9536C4.9755 10.9744 5.03754 11.023 5.07464 11.0888C5.11174 11.1546 5.12088 11.2322 5.10006 11.3046C5.07923 11.377 5.03014 11.4383 4.96353 11.4751L2.95824 12.5727C2.91544 12.5962 2.86725 12.6085 2.81824 12.6085L2.81821 12.6086ZM5.96238 14.3645C5.91378 14.3646 5.86595 14.3526 5.82333 14.3296C5.78071 14.3066 5.74468 14.2733 5.71858 14.2329L4.4823 12.3233C4.46149 12.2918 4.44723 12.2566 4.44033 12.2196C4.43343 12.1826 4.43403 12.1447 4.4421 12.1079C4.45017 12.0712 4.46555 12.0364 4.48734 12.0056C4.50914 11.9747 4.53692 11.9484 4.56909 11.9282C4.60125 11.908 4.63716 11.8943 4.67475 11.8878C4.71233 11.8814 4.75084 11.8823 4.78806 11.8906C4.82527 11.8988 4.86045 11.9143 4.89157 11.9361C4.92268 11.9578 4.94912 11.9854 4.96934 12.0173L6.20563 13.9269C6.23344 13.9699 6.24903 14.0195 6.25075 14.0705C6.25246 14.1214 6.24026 14.1719 6.2154 14.2166C6.19054 14.2613 6.15394 14.2987 6.10943 14.3247C6.06492 14.3507 6.01413 14.3645 5.96238 14.3645Z" fill="#FF6666"/>
<path d="M8.5885 1.81305H10.5527V2.38216H8.5885V1.81305ZM8.5885 2.95128H10.5527V3.5204H8.5885V2.95128ZM8.5885 4.08951H10.5527V4.65863H8.5885V4.08951ZM8.5885 5.22774H10.5527V5.79686H8.5885V5.22774ZM8.5885 6.36597H10.5527V6.93509H8.5885V6.36597Z" fill="#FF4E4E"/>
</svg>
