<svg width="22" height="19" viewBox="0 0 22 19" fill="none" xmlns="http://www.w3.org/2000/svg">
<path d="M19.3933 6.03818V4.97897C19.3958 3.92294 18.9773 2.90945 18.2306 2.16272C17.4839 1.41599 16.4704 0.997568 15.4144 1.00001H14.6499M2.81434 6.03818V4.97897C2.81191 3.92453 3.22906 2.91245 3.9738 2.16598C4.71854 1.41952 5.72965 1.00002 6.78409 1.00002H7.5854M19.3933 10.0816V13.6C19.3958 14.6561 18.9773 15.6695 18.2306 16.4163C17.4839 17.163 16.4704 17.5814 15.4144 17.579H14.6499M2.81434 10.0816V13.6C2.8119 14.6561 3.23032 15.6695 3.97705 16.4163C4.72378 17.163 5.73727 17.5814 6.7933 17.579H7.5854" stroke="white" stroke-width="1.5" stroke-linecap="round" stroke-linejoin="round"/>
<path d="M21.171 10.0811H1" stroke="white" stroke-width="1.5" stroke-linecap="round" stroke-linejoin="round"/>
</svg>
